<?xml version="1.0" encoding="UTF-8" standalone="no"?>
<svg width="393px" height="554px" viewBox="0 0 393 554" version="1.1" xmlns="http://www.w3.org/2000/svg" xmlns:xlink="http://www.w3.org/1999/xlink" xmlns:sketch="http://www.bohemiancoding.com/sketch/ns">
    <!-- Generator: Sketch 3.3 (11970) - http://www.bohemiancoding.com/sketch -->
    <title>P</title>
    <desc>Created with Sketch.</desc>
    <defs></defs>
    <g id="Page-1" stroke="none" stroke-width="1" fill="none" fill-rule="evenodd" sketch:type="MSPage">
        <path d="M2,34.3026031 L2,552 L114.450664,552 L112.328953,378.019727 C112.328953,378.019727 153.685735,420.453939 205.684222,420.45394 C257.682708,420.453941 390.273048,404.549398 390.273048,187.065769 C390.273048,19.4589169 264.031264,-1.77476591 167.49343,2.47694349 C70.9555959,6.72865289 2,34.3026031 2,34.3026031 Z M116.572375,91.5887905 C116.572375,91.5887905 97.4769787,93.7022132 97.4769789,197.674323 C97.4769791,301.646432 127.180928,354.68091 154.763166,354.68091 C182.345405,354.68091 252.361856,334.532947 252.361856,218.891429 C252.361856,103.249911 205.684222,74.6151053 173.858562,74.6151053 C142.032902,74.6151054 116.572375,91.5887905 116.572375,91.5887905 Z" id="P" stroke="#000000" stroke-width="4" fill="#B8C5D4" sketch:type="MSShapeGroup"></path>
    </g>
</svg>