<?xml version="1.0" encoding="UTF-8" standalone="no"?>
<svg width="456px" height="553px" viewBox="0 0 456 553" version="1.1" xmlns="http://www.w3.org/2000/svg" xmlns:xlink="http://www.w3.org/1999/xlink" xmlns:sketch="http://www.bohemiancoding.com/sketch/ns">
    <!-- Generator: Sketch 3.3 (11970) - http://www.bohemiancoding.com/sketch -->
    <title>S</title>
    <desc>Created with Sketch.</desc>
    <defs></defs>
    <g id="Page-1" stroke="none" stroke-width="1" fill="none" fill-rule="evenodd" sketch:type="MSPage">
        <path d="M316,168.957031 L454,168.957031 C454,168.957031 454,129.914062 437.998047,104.490234 C421.996094,79.0664062 370.498047,2.91406257 227,2.9140625 C83.5019531,2.91406243 3,52.5 3,147.5 C3,242.5 110.998047,275.914062 228,275.914062 C322.000011,275.914062 316.000011,358 316,402.990234 C315.999989,447.980469 272.991541,510.070527 227.999996,511 C130.999996,513.003906 136,344.914062 136,344.914062 L3,344.914062 C3,344.914062 1.99804688,387.990234 9.49804688,411.46875 C16.9980469,434.947266 51.5019486,550.996094 227.999996,550.996094 C404.498042,550.996094 454.000011,463 454.000011,385 C454.000011,315 397.015636,236.937515 228,236.9375 C127.507816,236.937491 135.999996,124 135.999996,124 C135.999996,124 139.999996,38 227.999996,38 C315.999996,38 316,168.957031 316,168.957031 Z" id="S" stroke="#000000" stroke-width="4" fill="#B8C5D4" sketch:type="MSShapeGroup"></path>
    </g>
</svg>