<?xml version="1.0" encoding="UTF-8" standalone="no"?>
<svg width="3918px" height="597px" viewBox="0 0 3918 597" version="1.1" xmlns="http://www.w3.org/2000/svg" xmlns:xlink="http://www.w3.org/1999/xlink" xmlns:sketch="http://www.bohemiancoding.com/sketch/ns">
    <!-- Generator: Sketch 3.3 (11970) - http://www.bohemiancoding.com/sketch -->
    <title>spearwolf</title>
    <desc>Created with Sketch.</desc>
    <defs></defs>
    <g id="Page-1" stroke="none" stroke-width="1" fill="none" fill-rule="evenodd" sketch:type="MSPage">
        <g id="spearwolf" sketch:type="MSLayerGroup" fill="#E9EBDB">
            <path d="M313.044545,144.960938 L451.044545,144.960938 C451.044545,144.960938 451.044545,129.917969 435.042592,104.494141 C419.040639,79.0703125 367.542592,2.91796882 224.044545,2.91796875 C80.546498,2.91796868 6.54259157,61.1679688 6.54259157,124.003906 C6.54259157,186.839844 108.042587,231.167969 225.04454,231.167969 C313.044556,231.167969 313.044556,358.003906 313.044545,402.994141 C313.044534,447.984375 270.036086,510.074434 225.04454,511.003906 C128.04454,513.007812 133.044545,312.917969 133.044545,312.917969 L0.0445448926,312.917969 C0.0445448926,312.917969 -0.957408232,387.994141 6.54259177,411.472656 C14.0425918,434.951172 48.5464935,551 225.04454,551 C401.542587,551 451.044556,463.003906 451.044556,385.003906 C451.044556,315.003906 394.060176,199.167984 225.04454,199.167969 C124.552356,199.16796 133.04454,124.003906 133.04454,124.003906 C133.04454,124.003906 137.04454,38.0039063 225.04454,38.0039062 C313.04454,38.0039062 313.044545,144.960938 313.044545,144.960938 Z" id="S" sketch:type="MSShapeGroup"></path>
            <path d="M481.633397,79.3026031 L481.633397,597 L594.084061,597 L591.962351,423.019727 C591.962351,423.019727 633.319132,465.453939 685.317619,465.45394 C737.316106,465.453941 869.906445,449.549398 869.906445,232.065769 C869.906445,64.4589169 743.664662,43.2252341 647.126827,47.4769435 C550.588993,51.7286529 481.633397,79.3026031 481.633397,79.3026031 Z M571.797781,105.950358 C571.797781,105.950358 547.633397,108.3099 547.633397,224.390097 C547.633398,340.470294 585.222438,399.68091 620.126548,399.68091 C655.030658,399.68091 743.633397,377.186613 743.633397,248.078045 C743.633397,118.969476 684.564904,86.9999999 644.290932,87 C604.016959,87.0000001 571.797781,105.950358 571.797781,105.950358 Z" id="P" sketch:type="MSShapeGroup"></path>
            <path d="M906.059323,49.3886256 L899.863476,551 L1288.13652,546.222749 L1288.13652,507.857907 L1019.64984,516.218097 L1019.64984,279.105784 L1162.15431,281.49441 L1162.15431,240.478673 L1019.64984,247.65388 L1019.64984,83.9230537 L1238.56975,89.8852871 L1240.63503,47 L906.059323,49.3886256 Z" id="E" sketch:type="MSShapeGroup"></path>
            <path d="M3163.87109,127.999999 L3170.86348,551 L3598.91407,551.000015 L3577.87111,498.000015 L3290.64984,516.218097 L3290.64985,94.9999995 L3163.87109,127.999999 Z" id="L" sketch:type="MSShapeGroup"></path>
            <path d="M3424.19585,49.3886256 C3406.47763,118.781157 3495.70312,477.999994 3495.70312,477.999994 L3559.86763,448.999994 L3550.91406,286.999994 L3680.29084,281.49441 L3680.29084,240.478673 L3549.91406,255.999994 L3537.78637,64.0156264 L3895.91406,124.996095 L3917.91406,102.99609 C3917.91406,102.99609 3441.91406,-20.0039053 3424.19585,49.3886256 Z" id="F" sketch:type="MSShapeGroup"></path>
            <path d="M1194.41856,471.355027 L1338.32297,460.132401 L1362.87888,382.272267 L1477.50649,382.272271 L1544.4672,551 L1734,549.867599 L1477.5065,4.05036964 L1410.54581,5.18277053 L1194.41856,471.355027 Z M1284.72695,354.666915 L1384.85614,141.743214 L1474.10172,354.666915 L1284.72695,354.666915 Z" id="A" sketch:type="MSShapeGroup"></path>
            <path d="M1700.95498,382.999992 L1804.75781,551 L1808.25678,330.564762 C1808.25678,330.564762 1896.99308,365.554482 1929.65016,415.706414 C1962.30723,465.858347 1954.04729,548.667352 1954.04729,548.667352 L2099.83779,548.667352 C2099.83779,548.667352 2086.40136,447.391324 2040.45094,402.87685 C1994.50051,358.362377 1875.90358,331.731086 1875.90358,331.731086 C1875.90358,331.731086 1915.46292,341.061678 1973.87479,336.396382 C2032.28667,331.731086 2115,252.421053 2115,148.618215 C2115,44.8153783 1973.87479,5.16036174 1861.90769,5.16036184 C1749.94058,5.16036194 1700.95498,49.4806743 1700.95498,49.4806743 L1700.95498,382.999992 Z M1768.79749,157.266406 C1762.36823,222.762137 1793.63609,299.074013 1834.84624,299.074013 C1876.05639,299.074013 1984.95703,267.2667 1984.95703,179.796587 C1984.95703,92.3264734 1920.99576,24.7359322 1860.86544,34.0130652 C1800.73513,43.2901982 1775.22676,91.7706754 1768.79749,157.266406 Z" id="R" sketch:type="MSShapeGroup"></path>
            <path d="M2118,0.63434047 L2267.08325,551 L2302.54876,551 L2396.28873,302.527919 L2526.17363,551 L2559.71736,551 L2710.04297,0.63434047 L2595.74581,20.507254 L2510.02294,452.848675 L2393.75548,183.26132 L2324.23183,415.577863 L2242.18751,10.5732237 L2118,0.63434047 Z" id="W" sketch:type="MSShapeGroup"></path>
            <path d="M2909.55598,12.2337697 C2807.32487,12.2337697 2699.00195,117.667081 2690.66557,254.717158 C2682.3292,391.767235 2758.40823,548.49569 2876.78796,550.940109 C2995.16769,553.384528 3134.99999,481.389971 3135,263.892205 C3135.00001,46.3944403 3011.7871,12.2337697 2909.55598,12.2337697 Z M2796.82886,274.321638 C2800.76814,355.617067 2823.0484,508.940687 2878.09356,520.767909 C2933.13872,532.595132 2984.5441,370.035012 2988.19413,274.321638 C2991.84416,178.608264 2977.36524,25.3153802 2910.86159,44.9761931 C2844.35794,64.6370061 2792.88957,193.026208 2796.82886,274.321638 Z" id="O" sketch:type="MSShapeGroup"></path>
        </g>
    </g>
</svg>